<?xml version="1.0" encoding="UTF-8"?>
<!DOCTYPE svg PUBLIC "-//W3C//DTD SVG 1.1//EN" "http://www.w3.org/Graphics/SVG/1.1/DTD/svg11.dtd">
<!-- Creator: CorelDRAW X7 -->
<svg xmlns="http://www.w3.org/2000/svg" xml:space="preserve" width="98.8112mm" height="59.4499mm" version="1.1" style="shape-rendering:geometricPrecision; text-rendering:geometricPrecision; image-rendering:optimizeQuality; fill-rule:evenodd; clip-rule:evenodd"
viewBox="0 0 2932 1764"
 xmlns:xlink="http://www.w3.org/1999/xlink">
 <defs>
  <style type="text/css">
   <![CDATA[
    .fil1 {fill:#52433F}
    .fil0 {fill:#D6C180}
    .fil2 {fill:#1C457A;fill-rule:nonzero}
   ]]>
  </style>
 </defs>
 <g id="Layer_x0020_1">
  <metadata id="CorelCorpID_0Corel-Layer"/>
  <path class="fil0" d="M707 1027l0 0c4,1 6,2 10,2 1,0 2,-4 6,-4 -1,0 -2,-1 -3,-2 -4,0 -11,-2 -13,4zm271 527l-29 0 0 -1c2,-4 3,-6 3,-11 0,-4 -6,0 -9,-2 -2,-2 -8,-5 -8,-8 1,-5 1,-9 5,-11 4,-3 5,-2 6,-8 1,-5 2,-10 2,-16 1,-3 -5,-6 -6,-8 -2,-3 -2,-9 -3,-12 8,1 13,2 18,-5 1,-1 -1,-5 -1,-8 1,-5 -1,-6 -4,-10 8,-1 11,-2 17,-5 7,-4 13,-6 15,-14 1,-2 4,-7 4,-10 -1,-3 -5,-9 -6,-11 -3,-6 -15,-4 -16,-11 4,0 28,3 29,0 4,-10 8,-21 12,-31 5,-12 9,-23 14,-35 1,-2 -1,-7 -1,-10 -1,-2 -5,-15 -3,-17 7,-9 14,-17 21,-26 2,-3 10,-4 14,-5 3,-1 3,-7 5,-10 2,-9 9,-20 7,-29 -3,-14 -6,-27 -9,-41 -1,-5 1,-10 3,-15 4,-11 7,-21 11,-32 3,-9 3,-9 -2,-18l0 0c-2,-4 -5,-7 -7,-12 0,0 -9,2 -11,2 -8,-3 -19,-9 -28,-10 -10,0 -21,-1 -32,-2 -10,0 -21,-1 -31,-2 -2,0 -6,-4 -7,-5 -7,-5 -13,-9 -19,-14 -6,-4 -15,-14 -23,-14 -8,0 -20,4 -28,0 -12,-6 -24,-12 -36,-19 -6,-3 -13,-1 -20,-1 -12,1 -25,2 -38,2 -5,0 -14,-1 -18,2 -5,3 -9,6 -14,10 -1,1 -8,4 -9,6 -1,7 -8,20 -5,28 -6,-4 -9,-7 -16,-7 -7,0 -9,3 -14,8 -9,6 -27,-7 -28,-18 -1,-2 1,-5 0,-7 0,-4 -1,-8 -1,-12 -1,-7 -5,-9 -11,-10 -3,-1 -7,1 -9,1 -3,0 -4,3 -6,3 -7,1 -12,4 -18,4 1,-2 4,-8 2,-10 -2,-3 0,-12 -4,-11 1,-1 1,-3 1,-4 1,2 2,4 3,5 0,-3 0,-6 0,-10 0,1 0,1 -1,1l0 0c0,-1 1,-2 1,-3 -2,1 -2,0 -3,-1 2,0 3,-9 4,-12 1,-7 -7,-2 -10,-2 -3,0 -9,4 -11,6 -5,3 -3,9 -3,14 0,4 -1,5 -2,7 -1,1 1,2 0,3 0,1 -2,2 -2,3 -1,0 -3,-2 -5,-1 -3,1 -4,2 -7,4 -2,1 -4,3 -6,5 -1,0 -4,-2 -6,-2 -6,0 -9,-4 -15,-9 -9,-7 -13,-15 -16,-27 -2,-5 -1,-10 -1,-15 0,-1 1,-4 0,-6 -1,-3 -5,-4 -6,-7 -2,-8 9,-22 14,-26 3,-2 7,-8 11,-8 2,1 5,2 7,0 3,-2 5,0 9,1 3,1 3,-3 6,0 0,-1 1,-2 0,-4 2,1 6,1 6,4 1,0 3,-2 2,-4 -1,0 -5,-1 -6,-1 6,-5 -4,-4 -6,-3 2,-4 16,-4 15,-10 3,7 8,-1 13,-1 2,0 5,2 8,3 2,1 4,-2 6,-3 4,-3 8,2 12,3 5,2 3,9 6,13 0,-1 1,-1 1,-2 0,4 2,5 4,7 2,2 4,4 5,7 0,0 6,3 7,4 3,2 4,-1 5,-3 2,-4 -1,-13 -4,-16 -4,-6 -7,-11 -12,-17 -3,-3 -6,-9 -5,-14 1,-9 2,-11 8,-17 2,-2 2,-5 3,-7 1,-3 5,-3 5,-5 1,-2 1,-7 3,-8 1,-1 3,0 4,-1 1,-1 2,-2 4,-3 -3,-1 -4,2 -6,0 1,-1 2,-2 3,-3 -1,0 -2,0 -3,-1 1,0 7,-2 7,-4 -1,-4 -5,-1 -8,-1 3,-2 5,-2 5,-6 0,-4 -4,-2 -5,-4 -1,-2 0,-6 -1,-8 -2,-1 -5,-1 -7,-3 2,0 4,1 5,2 -3,-6 -5,-8 -1,-14 2,-2 1,3 1,4 0,2 0,5 0,7 3,-1 4,2 6,3 -1,2 -1,5 -1,7l1 0c0,-4 2,-8 3,-12 0,-4 -6,-8 -7,-11 2,2 7,3 6,6 2,-3 7,-17 1,-16 1,-3 5,-4 8,-5 3,-1 4,-3 7,-5 -1,1 -3,1 -4,1 1,0 1,-1 1,-1 -3,1 -6,4 -10,6 4,-6 7,-7 14,-9 2,-1 0,-5 2,-5 3,0 6,1 9,-2 -1,-1 -2,-2 -3,-2 0,1 1,1 1,2 -9,3 -5,-11 -5,-15 0,-3 0,-4 2,-6 3,-2 4,-3 5,-7 1,0 1,0 2,1 1,-4 13,-5 9,-11 1,0 4,0 5,-2 1,-3 2,0 3,-2 2,-3 5,-8 9,-8 -1,1 -1,3 -1,5 2,-3 6,-3 9,-3 -2,2 -3,6 -6,4 -1,0 0,-3 -3,0 -2,3 -12,12 -5,17 1,0 4,2 6,0 2,-4 3,-9 5,-12 2,-2 3,1 4,-1 1,-1 3,-2 4,-3 4,-3 8,-6 12,-9 -1,-1 -2,-2 -3,-2 4,-1 6,-4 9,-6 3,-2 -3,-5 -5,-2 0,-4 1,-8 -4,-8 -1,4 -5,11 -1,14 -1,1 -2,2 -3,2 0,-1 -1,-1 -1,-2 -4,5 -9,4 -15,3 0,-1 0,-1 1,-1 -4,0 -10,-3 -10,-8 -1,1 -2,1 -3,1 1,-2 2,-4 2,-7 -2,0 -4,1 -6,2 0,0 -5,-3 -6,-2 3,-4 6,0 8,-3 2,-3 8,-7 2,-9 1,0 2,0 3,0 -8,-9 -22,5 -27,10 -8,7 -10,17 -18,24 5,-5 5,-11 8,-17 2,-4 4,-8 6,-11 1,-2 8,-4 7,-7 0,-9 7,-9 14,-11 7,-3 14,-5 22,-6 8,-2 12,-4 15,-11 2,-3 3,-6 5,-8 3,-2 7,-2 9,-4 2,-1 6,-5 7,-7 2,-5 -3,-5 -2,-9 0,-2 0,-8 -3,-8 -4,0 -8,-2 -9,3 -3,-2 1,-2 -1,-5 -2,-3 -6,-2 -8,-1 1,1 2,1 4,1 -3,1 -6,3 -8,5 -1,1 0,1 -2,3 -2,1 -2,2 -3,4 -1,2 -4,-3 -1,-5 3,-2 8,-4 9,-7 -3,1 -5,4 -8,4 4,-3 7,-5 11,-7 6,-3 -1,-4 -5,-5 -5,-2 -7,-1 -13,0 -3,1 -1,-2 -3,-4 -2,-2 -5,-2 -7,-3 -1,0 -5,-1 -6,-2 -1,-2 2,-6 1,-8 -1,-4 -9,-8 -11,-11 -3,-3 -7,-7 -11,-11 88,-26 181,-40 277,-40 15,0 29,1 44,1 -1,3 -3,5 -4,8 3,-1 6,-3 9,-3 -2,1 -6,2 -7,4 -1,3 -2,4 -4,5 1,0 3,0 4,0 -1,1 -2,2 -3,3 2,0 3,0 5,0l0 0c-1,1 -1,2 -2,3 9,4 16,-10 22,-14 2,-1 5,1 5,-2l0 -2c5,0 10,0 15,1 -2,1 -5,2 -6,3 1,1 1,3 1,2 4,3 5,-3 9,-2 0,1 0,1 -1,2 2,-1 6,1 6,0l6 -4 1 0c-1,2 -2,4 -2,6 -5,1 -10,0 -10,7 0,3 -5,8 -7,11 5,2 8,-8 15,-6 1,-9 4,-2 10,-7 1,-2 4,-6 6,-6 3,-1 4,2 7,1 2,-1 3,-2 5,-3 4,1 8,1 12,2 1,1 1,3 -1,4 -2,3 -6,5 -8,9 1,0 3,0 4,0 -4,3 -6,4 -11,4 -2,1 -2,0 -3,-2 -1,-2 -4,0 -6,0 3,3 4,5 6,9 1,2 -6,5 -8,6 -3,2 -2,-7 -7,-1 -2,3 -6,3 -10,5 1,2 3,3 5,3 -1,1 -1,2 -2,2 2,2 3,2 5,1 3,-1 5,0 8,1 0,0 4,0 5,0 2,0 1,2 4,1 0,2 2,8 5,8 6,0 6,2 8,8 1,7 7,22 -1,26 -3,1 -8,2 -11,1 -5,0 -8,3 -13,3 -6,0 -8,1 -14,4 -4,2 -8,-3 -11,3 0,0 1,0 1,1 -2,1 -7,2 -7,5 -1,3 2,7 4,4 1,5 1,10 4,14 4,4 2,13 2,18 1,6 -1,8 3,11 1,1 2,-1 3,0 0,2 1,4 1,5 2,3 1,6 2,9 3,-3 6,-1 10,-4 4,-4 8,2 11,-1 -3,4 5,9 8,7 3,-2 4,-8 9,-9 5,-1 10,-2 15,-4 2,-1 2,-6 3,-8 0,-1 4,-3 6,-4 -2,-2 1,-8 3,-11 1,-4 -5,-5 -5,-8 3,-9 4,-16 10,-23 3,-2 9,-5 10,-9 1,-3 -4,-9 -3,-11 1,-2 4,-8 7,-8 5,0 10,0 16,1 2,0 14,-15 15,-17 1,-4 5,-3 8,-3 6,2 7,2 10,8 3,7 11,7 18,11 3,2 7,6 11,4 2,-1 9,2 9,4 2,-1 5,-1 5,2 1,3 4,2 6,1 1,0 9,11 7,12 -2,2 1,3 -1,6 -2,2 -7,3 -9,5 -3,1 -13,3 -14,2 -6,10 13,4 16,9 2,3 10,0 7,-4 -3,-3 -4,-8 -1,-11 2,6 8,-3 6,-6 -1,-3 8,-7 2,-10 -3,-1 -5,0 -5,-3 0,-4 0,-4 2,-7 2,-3 10,3 12,4 3,-8 -19,-11 -24,-13 4,-5 -1,-3 -4,-3 -4,1 -7,-1 -11,-3 -3,-1 -4,-6 -7,-9 -3,-2 -8,-3 -12,-4 -4,-2 -1,-7 -3,-9 -4,-4 -1,-6 3,-8 4,-3 3,-4 5,0 2,5 6,7 6,0 5,3 6,4 10,10 1,1 7,6 9,6 8,-1 16,3 24,7 5,2 7,1 8,8 2,6 1,10 7,13 3,1 6,6 9,8 5,5 5,6 11,4 -5,7 -3,8 2,15 2,-2 3,-3 5,-1 2,3 5,2 8,2 -2,-4 -4,-5 -1,-8 2,-2 1,-5 -3,-4 2,-5 4,-3 8,-1 -1,-8 -7,-7 -12,-10 2,-4 2,-4 -2,-8 -2,-2 -6,-5 -4,-9 3,2 6,3 8,0 1,-1 -2,-3 0,-5 1,-1 3,-3 5,-3 0,0 0,0 1,0 4,2 9,4 14,6 0,0 0,1 0,1l1 -1 0 0c-1,2 -1,4 0,6 2,-1 4,-2 6,-2 -4,8 10,22 17,24 3,1 11,4 15,3 4,-2 4,-2 4,-6 0,-4 3,-3 6,-3 1,0 2,0 3,0 6,3 12,6 19,9 -1,0 -1,0 -2,0 -2,1 -8,1 -8,4 -2,9 13,0 14,-1 0,-1 -1,-1 -1,-1 6,2 11,5 16,8 0,7 -2,15 -3,19 0,11 -12,15 -21,14 -8,-2 -8,-1 -14,4 -5,5 -6,5 -13,5 -6,0 -12,0 -19,0 -1,0 -3,4 -4,3 -2,-3 -3,-4 -6,-4 -4,0 -8,0 -11,1 -3,0 -2,-4 -4,-4 -8,0 -12,2 -19,6 -2,1 -2,7 -3,9 0,2 4,4 4,6 -2,10 -6,10 -15,7 -6,-2 -11,0 -16,0 -7,-1 -7,-9 -14,-9 -9,0 -17,0 -26,0 -5,1 -11,-4 -16,-7 2,-3 7,-10 5,-13 -6,-6 -5,-6 -4,-15 -5,0 -10,-3 -14,1 -5,5 -9,5 -16,6 -2,1 -5,1 -7,2 -2,1 -3,4 -6,5 -2,1 -5,0 -8,0 -2,0 -6,2 -8,3 -9,4 -19,11 -27,17 -4,4 -8,8 -11,12 -1,1 -7,-1 -8,-1 -2,-1 -6,2 -8,3 -5,3 -11,-4 -12,-3 -6,3 -5,11 -5,18 -1,9 -18,15 -17,24 1,8 2,15 3,23 0,6 -2,6 -6,11 -7,8 -13,12 -15,23 -4,16 -8,32 -12,47 0,3 -3,8 -2,11 0,4 6,11 8,15 3,7 6,13 10,19 2,3 -1,11 -1,15 0,2 -2,11 -1,13 4,4 8,7 12,11 11,11 23,23 34,34 7,7 12,9 21,13 7,2 15,5 22,8 3,1 8,4 10,2 6,-4 12,-8 18,-12 4,-3 8,-2 14,-2 5,0 7,0 11,-3 5,-5 11,-9 16,-14 2,-2 26,-13 28,-11 6,3 11,7 16,11 4,3 12,-2 15,-3 7,-2 7,-2 13,3 6,4 5,5 6,12 1,8 3,16 4,24 0,4 0,8 3,10 6,5 12,9 17,14 3,2 10,5 12,9 6,12 12,23 18,35 6,11 12,18 9,31 -3,14 0,26 2,40 0,3 0,8 2,11 4,5 9,10 14,16 7,8 14,15 19,25 3,7 6,14 10,22 1,3 3,12 6,14 4,2 10,3 12,7 5,6 9,12 14,18 2,3 8,8 8,12 2,9 2,9 10,13 2,1 9,7 12,6 5,-3 10,-6 15,-8 11,-6 22,-11 33,-17 3,-2 6,-9 8,-12 3,-5 8,-10 10,-15 6,-11 9,-23 13,-35 1,-3 -2,-13 -3,-17 -1,-7 -3,-9 2,-13 3,-2 12,-8 13,-11 2,-5 -2,-15 -3,-20 0,-4 -8,-10 -11,-13 -3,-5 1,-8 3,-13 3,-6 5,-11 8,-17 2,-4 10,-9 13,-12 6,-5 11,-17 8,-26 -4,-12 -6,-28 -15,-36 -7,-5 -7,-5 -9,-13 -2,-9 -2,-10 -9,-16 -4,-4 7,-31 8,-36 7,-24 21,-44 32,-65 5,-8 6,-18 8,-27 2,-10 7,-22 7,-34 0,-2 1,-16 -1,-18 -3,-3 -9,2 -11,3 -13,7 -25,14 -37,21 -4,2 -11,-6 -17,-6 6,-9 -5,-12 -11,-16 -4,-3 -7,-5 -11,-8 -2,-1 -9,1 -11,-1 -5,-7 -9,-16 -15,-22 -3,-2 -8,-4 -11,-6 -3,-1 -4,-7 -6,-10 -2,-5 -4,-10 -6,-14 -1,-3 -7,-5 -9,-7 -6,-3 -7,-10 -11,-15 -8,-9 -16,-18 -23,-26 -4,-5 -14,-12 -11,-18 6,7 11,11 18,16 1,-6 1,-11 1,-17 1,4 1,9 2,14 4,-3 8,3 11,6 6,6 12,12 17,18 3,3 7,4 10,6 3,5 9,9 11,14 2,4 5,15 9,15 7,1 7,2 13,7 8,8 16,14 22,26 3,7 7,14 10,21 3,7 4,5 11,3 4,-1 4,-6 8,-8 5,-3 10,-7 16,-9 3,-2 5,-2 6,-5 0,-2 0,-3 2,-5 6,-4 12,-8 18,-12 4,-3 2,-8 5,-11l4 -3c214,179 350,449 350,750l-977 0zm-94 0l-884 0c0,-275 114,-524 296,-701 4,1 8,2 12,2 8,1 6,-1 1,-7l0 0c-1,-1 -4,0 -6,-1 0,0 -1,0 -1,0 2,-1 4,-3 6,-5 1,1 3,2 5,3 7,4 7,5 9,13 -6,0 -11,0 -17,0 5,8 9,14 12,23 2,10 4,20 7,30 3,12 4,20 11,30 5,8 13,11 19,17 4,5 8,10 12,14 4,5 6,4 11,4 7,-1 17,3 21,8 4,6 8,11 12,16 2,3 5,8 8,9 6,1 8,3 13,7 5,4 -1,7 -4,8 3,1 6,3 9,4 3,1 4,0 7,1 2,1 7,2 8,5 0,2 2,8 3,9 7,2 13,4 18,9 2,2 5,0 4,-4 0,-2 -4,-5 -7,-5 -1,-1 -3,3 -4,-2 -2,-3 -4,-6 -6,-9 -2,-2 -4,-5 -6,-7 -4,-1 -6,-2 -8,-6 -5,-6 -11,-9 -17,-13 -4,-3 -8,-12 -11,-17 5,1 10,2 15,2 2,1 8,12 9,15 3,4 7,4 12,6 5,2 8,5 13,8 1,1 4,3 4,4 1,2 0,5 1,6 6,3 12,5 18,8 4,2 6,4 9,7 3,2 12,7 12,11 0,6 -2,10 4,12 5,4 11,7 16,10 2,1 7,1 9,1 7,1 15,1 22,2 9,1 20,5 28,0 3,-3 7,-7 11,-5 6,3 12,7 18,10 8,4 19,1 27,1 10,0 15,5 24,11 3,2 4,7 7,10 3,3 11,4 15,6 2,0 4,1 6,2 1,0 2,-2 4,-2 3,0 10,4 10,0 4,5 4,5 9,1 -1,-1 -5,-3 -4,-5 1,-2 2,-4 4,-6 2,-2 2,-2 5,-2 5,1 5,1 5,6 0,4 10,5 10,9 0,2 2,5 2,6 -1,3 1,4 2,6 6,13 1,20 -3,31 -2,5 -4,10 -6,15 -1,3 0,10 0,14 1,7 -2,21 4,26 8,9 17,18 25,26 11,11 21,22 32,32 5,6 7,9 14,11 7,3 13,5 20,7 3,1 10,2 13,4 3,3 5,11 6,14 2,5 5,11 7,16 1,6 1,14 2,20 1,15 3,30 4,45 2,25 5,49 7,74 2,19 7,39 10,59l5 31zm-380 -855c30,-17 62,-33 94,-46 0,0 1,1 3,2 3,3 7,5 10,6 6,3 9,16 7,22 -2,6 -11,13 -16,18 3,2 7,4 9,7 2,5 5,10 7,15 2,5 -5,19 -11,14 -7,-4 -17,-8 -19,-17 -1,-6 -3,-12 -4,-18 -1,-1 -9,1 -10,1 -5,1 -9,2 -14,3 -3,0 -9,-3 -12,-4 -9,-4 -16,-5 -25,-5 -3,-1 -8,-2 -10,0 -5,2 -6,5 -9,2zm156 -70c9,-3 18,-6 27,-9 0,3 -1,6 -2,9 -1,-1 -2,0 -3,-1 2,19 -23,-5 -23,9 -3,-1 -1,-5 1,-8zm-46 168l0 0c0,0 -1,1 -1,1l1 0c1,-2 1,-2 0,-4 0,1 0,1 0,2 -2,-3 -4,-2 -5,-1 -2,2 -4,0 -6,2 1,0 1,0 2,0 3,1 7,2 9,0zm-16 -2l0 0c-2,0 -2,0 -2,1 1,0 1,0 2,1 0,-1 0,-1 0,-2zm5 3l0 0c-1,-1 -1,-1 -1,-1 -1,0 -1,-1 -2,-1 -1,1 -1,1 -1,2 1,0 2,0 4,0zm178 -107l0 0c0,-3 1,-5 1,-7 -6,-1 -10,9 -11,15 -1,9 -3,14 -8,23 0,1 1,8 2,9 2,2 7,0 9,-1 7,-3 13,-5 21,-3 -2,1 -3,3 -2,6 5,-3 5,-8 11,-10 1,5 0,5 4,5 4,1 5,1 6,-3 1,-4 -4,-11 -6,-14 -1,-2 -5,-2 -5,-3 -1,-5 -2,-4 -5,-7 -3,-1 -10,4 -12,5 -1,-1 -1,-5 -3,-5 -1,0 -4,0 -4,-1 -2,-5 0,-5 2,-9zm5 314l0 0c3,4 9,-1 10,-4 0,-1 -1,-1 -1,-1 -4,0 -13,0 -9,5zm-62 3l0 0c2,-2 5,-3 8,-5 -3,-1 -5,-2 -8,-2 -2,0 -4,-3 -5,-2 -4,1 -10,0 -14,-3 0,1 0,1 0,2 -10,-4 -20,-6 -30,-4 -6,1 -10,3 -15,7 -5,2 -5,7 -8,10 9,2 12,-17 22,-12 -1,1 -2,2 -4,2 2,1 4,2 6,0 2,-1 3,1 5,0 4,-1 9,1 13,0 4,0 6,4 10,5 2,0 6,-2 7,1 0,1 -3,5 -3,6 5,-1 10,-4 16,-5zm10 -261l0 0c-1,7 5,7 10,7 5,1 5,-2 7,-6 -4,1 -9,2 -13,3 -1,-1 -3,-3 -4,-4zm-10 -27l0 0c5,2 17,8 22,2 -7,-5 -15,-4 -22,-2zm-84 95l0 0c1,3 -8,8 -11,9 -4,1 -5,1 -7,5 -2,3 -3,5 -6,5 -1,-3 1,-4 3,-6 -2,-1 -2,0 -3,-2 -1,4 -2,7 -3,11 2,0 3,0 5,0 0,1 0,1 -1,2 7,-1 9,-5 14,-9 4,-4 7,-7 11,-12 0,-2 0,-3 -2,-3zm8 -5l0 0c6,4 14,-8 8,-9 1,-2 2,-4 3,-5 -2,2 -7,9 -10,8 -4,0 -8,3 -12,5 -5,14 6,-1 11,1zm-109 -4l0 0c3,1 5,-2 8,-4 0,1 0,2 0,3 8,1 14,-16 20,-13 -2,1 -3,4 -3,7 2,-2 4,-3 6,-1 3,2 4,0 7,1 1,0 10,-6 11,-7 0,3 3,2 5,2 2,0 3,3 5,4 -3,0 -5,-1 -6,3 -4,-3 -11,1 -12,6l-1 -1c0,0 1,-1 1,-2 -1,1 -2,2 -2,3 -1,-1 -1,-2 -1,-2 -2,3 -4,11 -4,14 3,0 3,-6 5,-8 1,3 -1,7 -1,10 1,4 0,9 1,12 2,6 10,21 12,7 1,-7 -1,-11 -4,-17 -3,-7 2,-9 2,-14 1,1 1,2 1,4 2,-3 0,-6 4,-8 -5,-3 2,-4 4,-3 3,2 6,0 8,4 0,0 0,0 -1,0 2,2 4,5 2,8 -1,0 -3,4 -2,5 1,2 5,-4 6,-5 3,0 6,7 7,9 1,-2 2,-4 3,-7 1,-1 -1,-4 -1,-6 0,-3 3,-8 -3,-9 3,-3 3,2 5,1 0,1 1,1 0,2 1,0 1,0 2,1 1,-2 5,-1 6,-2 1,0 -1,-3 2,-2 -4,-2 -6,-9 -12,-9 -5,0 -10,2 -15,2 -2,0 -13,0 -12,-1 0,-2 -1,-2 -2,-3 -1,-1 0,-3 0,-4 -2,-3 -5,0 -4,-6 -7,4 -8,1 -13,-4 -3,-2 -4,2 -6,2 -3,-1 -6,-2 -8,-1 3,2 1,4 -1,6 1,-1 1,-3 1,-4 -2,2 -1,4 -3,6 0,-1 0,-2 0,-3 -3,2 -1,5 -3,7 -3,2 -5,4 -8,7 -2,3 -4,7 -6,10zm-55 -39l0 0c-1,-3 -1,-1 1,-3 0,1 0,2 0,2 0,0 0,0 0,-1 3,0 3,3 3,5 1,-1 1,-3 3,-2 1,0 0,3 0,5 1,-2 2,-2 2,-2 -2,2 -1,6 1,9 2,2 2,-2 2,-3 0,0 1,0 2,0 -2,-2 -1,-6 -3,-7 -3,-1 -5,-5 -6,-7 -3,-3 -14,-16 -12,-19l-1 0c0,1 -1,1 -2,2 0,-2 1,-3 2,-4 0,0 -2,-1 -2,-1 -1,5 -1,6 3,7 -2,0 -8,-1 -8,3 0,7 1,6 6,6 -5,2 4,7 6,10 1,0 2,0 3,0zm263 249l0 0c1,0 4,-2 5,-1 1,0 2,5 5,3 1,-1 0,-5 1,-6 2,-3 3,-1 3,-1 4,-1 6,-3 11,-4 3,-1 3,2 4,-3 1,-1 -3,-2 -5,-2 -3,0 -4,0 -6,-3 -3,-2 -2,0 -5,0 -2,0 -5,-1 -6,0 -1,1 -4,2 -5,3 -5,1 -7,0 -11,4 6,0 6,2 10,6 -2,3 -17,2 -14,6 6,2 7,-1 13,-2zm602 -323l0 0c0,-3 -6,-2 -9,-1 -5,2 -6,1 -12,0 0,1 -1,3 -1,4 9,0 14,-1 22,-3zm-151 -15l0 0c0,1 -1,4 -1,5 0,1 2,1 2,2 1,4 -2,5 2,7 3,1 5,1 4,-3 0,-2 4,-1 3,-5 -1,-4 -1,-8 -2,-12 -1,-8 -9,-1 -11,1 0,0 -1,0 -2,0 0,5 3,2 5,5zm-6 -19l0 0c-2,3 5,7 7,6 0,-7 0,-10 -2,-16 -2,1 0,2 -1,4 -1,2 -3,4 -4,6zm-40 39l0 0c2,1 4,2 6,2 1,-1 2,-3 3,-4 -4,-5 -6,-2 -9,2zm496 369l0 0c-2,-2 -12,-10 -9,0 2,8 -1,8 -4,15 -3,5 -3,10 -7,14 -5,4 -9,7 -14,10 -3,1 -2,12 -1,14 2,5 8,11 9,16 1,6 -4,13 -4,18 -1,7 2,11 5,16 3,5 6,11 8,16 1,2 11,3 13,2 1,-1 10,-7 10,-8 0,-4 0,-9 1,-14 0,-16 0,-33 1,-50 0,-11 0,-16 -4,-27 1,1 3,2 5,3 1,-10 -4,-16 -8,-24l-1 -1z"/>
  <path class="fil1" d="M385 578c-6,24 -14,36 -20,59 -6,19 -9,38 -15,58 -10,37 -15,83 -26,117 -4,46 -14,87 -19,132 -7,65 -9,79 -2,128 3,16 11,18 24,29 7,6 15,12 33,16 7,-79 -45,-80 -38,-176 23,14 21,50 39,87 23,45 25,45 70,63 0,-24 1,-24 -4,-33 -1,-3 -4,-13 -7,-13 -13,-2 -8,2 -27,9 -21,-43 -51,-112 -16,-152 14,-16 9,7 16,-21 -26,-23 -26,-60 -24,-107 2,-55 -4,-92 46,-101 37,-8 52,-61 76,-110 44,15 10,37 90,42 47,3 76,17 111,-2l4 -37c-48,-82 -94,-245 -126,-278 -49,-51 -105,28 -115,67 -17,63 33,126 13,176 -47,23 -54,-13 -83,47zm410 -578c7,1 13,2 20,4 4,1 4,3 3,6l-16 122c28,7 57,14 86,21 7,1 6,6 6,12 -1,6 -1,11 -1,16 -1,7 -5,8 -11,6l-85 -21 -61 466c-8,-3 -21,-18 -24,-37l58 -437 -81 -20c-2,0 -3,-1 -4,-5l2 -27c1,-2 3,-3 6,-3l82 20c5,-40 10,-80 15,-120 1,-2 2,-3 5,-3zm-391 897c9,112 12,54 37,107 18,38 36,70 24,98 -15,36 -31,20 -51,47l14 38 1 -3 40 79 -24 12 5 53c5,45 -12,16 -18,-7l-32 -123 -8 -31c-16,2 -8,-6 -11,13 10,45 17,94 25,133 8,42 15,107 26,139 17,52 29,115 12,177 -3,12 2,16 12,21 13,7 29,13 37,19 1,65 4,94 69,95 14,0 29,0 28,-20 -3,-28 -16,-33 -17,-76 1,-2 2,-4 3,-6 31,-3 61,-8 91,-14 -3,11 -7,21 -10,37 -1,3 0,8 4,8 79,7 80,-8 85,-62l3 -1c40,-10 48,-20 80,-42 50,-38 44,-90 44,-162 -2,-84 -22,-222 -22,-237 -1,-1 -1,-3 -2,-4 0,-2 -1,-4 -1,-5 0,-2 -1,-4 -1,-5 -20,-72 -37,-51 -57,-142l-28 -66 -4 -2 -3 -18c-8,-25 -23,-129 -24,-159 -3,-51 16,-135 -27,-160 -15,-11 -156,-20 -177,-14 -27,8 -29,32 -42,53 -7,12 -30,29 -46,35 -5,1 -9,6 -12,10 -9,8 -8,7 -13,24 -12,52 -3,108 -10,161z"/>
  <path class="fil2" d="M1137 810c-7,9 -14,19 -21,30 -7,11 -14,23 -22,35 -8,12 -16,23 -25,35 -9,12 -18,23 -28,32 -5,-3 -10,-9 -17,-17 -6,-7 -13,-16 -20,-25 -8,-9 -15,-19 -22,-29 -8,-10 -14,-19 -20,-27 -6,-8 -12,-15 -16,-21 -5,-5 -7,-8 -9,-9 0,1 0,2 -1,3 0,1 0,3 0,7 0,4 0,10 0,17 0,8 0,19 0,33 0,13 0,31 0,51 0,21 0,47 0,77 0,7 6,14 18,20 3,2 6,3 9,5 3,2 5,5 4,7 0,4 -2,7 -3,10 -2,3 -5,4 -10,4l-80 0c-8,0 -12,-5 -12,-14 0,-3 5,-7 15,-13 11,-5 16,-12 16,-19l0 -255c0,-9 -5,-16 -16,-19 -10,-4 -15,-8 -15,-14 2,-3 3,-5 5,-9 2,-3 4,-5 7,-5l63 0c4,2 10,7 16,15 7,7 14,16 22,26 7,10 15,21 23,33 8,11 16,22 23,32 7,10 13,19 19,26 6,8 10,12 12,14 3,0 6,-4 11,-10 4,-6 9,-13 14,-21 6,-8 11,-17 17,-27 5,-9 10,-18 15,-26 5,-8 8,-14 11,-19 3,-6 4,-8 4,-8 15,-23 28,-35 39,-35l72 0c8,0 12,5 12,14 0,3 -5,7 -15,13 -10,5 -15,12 -15,20l0 255c0,7 5,14 17,20 3,2 6,3 9,4 3,2 4,4 4,8 0,4 -1,7 -2,10 -2,2 -6,4 -10,4l-117 0c-8,0 -12,-5 -12,-14 0,-3 5,-7 16,-13 10,-5 15,-11 15,-19l0 -192zm311 238c-9,0 -14,-5 -14,-14 0,-5 4,-9 11,-12 7,-2 13,-6 18,-10 4,-4 6,-9 4,-13l-15 -48c-5,-2 -10,-3 -14,-3 -5,-1 -10,-1 -16,0 -7,1 -14,2 -20,2 -7,1 -13,0 -17,-2 -6,-1 -9,-4 -11,-7 -2,-2 -3,-6 -3,-9 0,-7 2,-12 7,-14 6,-3 13,-4 23,-4 6,0 12,0 18,0 7,1 12,-1 15,-4 0,-4 -2,-11 -5,-21 -4,-10 -7,-21 -11,-32 -4,-12 -8,-22 -12,-32 -3,-10 -6,-16 -7,-19 -5,9 -10,21 -16,38 -6,17 -13,38 -21,62 -10,26 -17,48 -21,64 -4,17 -6,28 -6,34 0,8 4,14 13,17 9,4 14,8 14,13 0,9 -5,14 -14,14l-82 0c-5,0 -7,-1 -8,-4 -1,-2 -2,-6 -2,-11 10,-7 18,-13 26,-20 7,-7 12,-14 15,-20 16,-46 31,-92 45,-137 15,-45 29,-91 45,-138 2,-5 6,-10 11,-13 5,-3 11,-5 17,-5 7,0 14,2 22,4 7,3 12,7 15,12 16,46 32,91 48,137 16,45 32,91 48,136 2,5 5,10 10,13 5,4 12,9 21,15 5,4 9,7 13,9 3,3 5,6 5,8 0,9 -4,14 -13,14l-136 0zm405 -238c-7,9 -14,19 -21,30 -7,11 -14,23 -22,35 -8,12 -16,23 -25,35 -8,12 -18,23 -28,32 -4,-3 -10,-9 -17,-17 -6,-7 -13,-16 -20,-25 -7,-9 -15,-19 -22,-29 -7,-10 -14,-19 -20,-27 -6,-8 -11,-15 -16,-21 -4,-5 -7,-8 -9,-9 0,1 0,2 0,3 -1,1 -1,3 -1,7 0,4 0,10 0,17 0,8 0,19 0,33 0,13 0,31 0,51 0,21 0,47 0,77 0,7 6,14 18,20 3,2 6,3 9,5 4,2 5,5 4,7 0,4 -1,7 -3,10 -2,3 -5,4 -10,4l-80 0c-8,0 -12,-5 -12,-14 0,-3 5,-7 15,-13 11,-5 16,-12 16,-19l0 -255c0,-9 -5,-16 -16,-19 -10,-4 -15,-8 -15,-14 2,-3 4,-5 5,-9 2,-3 4,-5 7,-5l63 0c4,2 10,7 16,15 7,7 14,16 22,26 8,10 16,21 24,33 8,11 15,22 22,32 7,10 13,19 19,26 6,8 10,12 13,14 2,0 5,-4 10,-10 4,-6 9,-13 15,-21 5,-8 10,-17 16,-27 6,-9 11,-18 15,-26 5,-8 9,-14 11,-19 3,-6 4,-8 4,-8 16,-23 29,-35 39,-35l72 0c8,0 12,5 12,14 0,3 -5,7 -15,13 -10,5 -15,12 -15,20l0 255c0,7 6,14 17,20 3,2 6,3 9,4 3,2 4,4 4,8 0,4 0,7 -2,10 -2,2 -5,4 -10,4l-117 0c-8,0 -12,-5 -12,-14 0,-3 6,-7 16,-13 10,-5 15,-11 15,-19l0 -192zm286 238c-9,0 -14,-5 -14,-14 0,-5 3,-9 10,-12 8,-2 14,-6 18,-10 5,-4 6,-9 4,-13l-15 -48c-5,-2 -9,-3 -14,-3 -4,-1 -10,-1 -16,0 -6,1 -13,2 -20,2 -6,1 -12,0 -17,-2 -5,-1 -9,-4 -11,-7 -2,-2 -3,-6 -3,-9 0,-7 3,-12 8,-14 5,-3 13,-4 23,-4 5,0 11,0 18,0 7,1 12,-1 15,-4 -1,-4 -3,-11 -6,-21 -3,-10 -7,-21 -11,-32 -4,-12 -8,-22 -11,-32 -4,-10 -6,-16 -8,-19 -4,9 -9,21 -15,38 -6,17 -13,38 -22,62 -9,26 -16,48 -21,64 -4,17 -6,28 -6,34 0,8 5,14 14,17 9,4 13,8 13,13 0,9 -4,14 -14,14l-81 0c-5,0 -8,-1 -9,-4 -1,-2 -1,-6 -1,-11 9,-7 17,-13 25,-20 8,-7 13,-14 16,-20 16,-46 31,-92 45,-137 14,-45 29,-91 44,-138 3,-5 6,-10 12,-13 5,-3 10,-5 16,-5 7,0 15,2 22,4 8,3 13,7 15,12 16,46 32,91 48,137 16,45 33,91 49,136 1,5 5,10 10,13 5,4 12,9 21,15 4,4 8,7 12,9 4,3 6,6 6,8 0,9 -5,14 -14,14l-135 0zm-937 453c-9,0 -14,-5 -14,-14 0,-5 4,-9 11,-12 7,-2 13,-6 18,-10 4,-4 5,-9 4,-13l-15 -48c-5,-2 -10,-3 -15,-3 -4,-1 -9,-1 -15,0 -7,1 -14,2 -20,2 -7,0 -13,0 -17,-2 -6,-2 -9,-4 -11,-7 -2,-3 -3,-6 -3,-10 0,-7 2,-11 7,-14 5,-2 13,-3 23,-3 5,0 12,0 18,0 7,0 12,-1 15,-4 0,-4 -2,-11 -6,-21 -3,-11 -6,-21 -10,-33 -4,-11 -8,-22 -12,-31 -4,-10 -6,-16 -7,-19 -5,8 -10,21 -16,38 -6,17 -13,37 -21,61 -10,27 -17,49 -21,65 -4,16 -6,28 -6,34 0,8 4,14 13,17 9,3 14,8 14,13 0,9 -5,14 -14,14l-82 0c-5,0 -8,-2 -8,-4 -1,-3 -2,-6 -2,-11 9,-7 18,-14 25,-20 8,-7 13,-14 16,-20 16,-46 31,-92 45,-137 14,-46 29,-92 45,-138 2,-6 6,-10 11,-13 5,-3 11,-5 17,-5 7,0 14,1 22,4 7,3 12,7 15,12 16,46 32,91 48,137 16,45 32,90 48,136 2,5 5,9 10,13 5,3 12,8 21,15 5,3 9,7 12,9 4,3 6,5 6,8 0,9 -5,14 -14,14l-135 0zm424 -301c0,15 1,32 1,52 0,21 1,42 1,63 0,22 0,43 1,65 0,21 0,40 -1,57 0,17 -1,31 -1,42 -1,11 -3,16 -4,17 -2,2 -5,4 -8,5 -3,1 -7,2 -10,2 -4,0 -7,0 -10,-1 -3,-1 -6,-3 -8,-6 -13,-18 -27,-37 -41,-56 -14,-20 -29,-39 -44,-59 -15,-20 -31,-39 -47,-59 -16,-20 -32,-38 -49,-57l0 190c0,9 5,15 15,18 11,3 16,8 16,14 0,9 -4,14 -13,14l-80 0c-8,0 -12,-5 -12,-14 0,-6 5,-10 15,-13 11,-4 16,-10 16,-19l0 -255c0,-10 -5,-16 -16,-19 -10,-4 -15,-8 -15,-15 0,-8 4,-13 12,-13l69 0c3,0 9,4 16,12 8,8 16,18 26,30 10,12 21,26 33,41 12,16 24,31 35,45 12,15 23,29 33,42 11,13 20,24 27,32 0,0 0,-1 1,-2 0,-1 0,-3 0,-6 -1,-3 -1,-7 -1,-14 0,-6 0,-15 0,-26 0,-12 0,-26 0,-43 0,-18 0,-39 0,-64 0,-9 -7,-16 -20,-21 -7,-3 -10,-7 -10,-12 0,-9 4,-13 12,-13l79 0c9,0 13,4 13,13 0,6 -5,10 -15,14 -10,3 -16,9 -16,19zm327 28c-7,-5 -12,-9 -16,-12 -3,-3 -7,-8 -12,-14 -7,-8 -24,-13 -51,-13 -11,0 -17,5 -17,15l0 251c0,9 6,15 16,19 10,3 15,8 15,14 0,8 -4,13 -13,13l-116 0c-8,0 -12,-5 -12,-13 0,-7 3,-11 9,-12 14,-4 21,-13 21,-26l0 -246c0,-5 -1,-8 -3,-11 -2,-2 -5,-4 -11,-4 -7,0 -13,0 -18,0 -6,0 -11,0 -15,1 -5,1 -9,3 -14,6 -4,2 -9,7 -13,13 -11,13 -18,20 -23,20 -9,0 -13,-4 -13,-12 0,-7 3,-17 11,-30 2,-5 5,-10 7,-14 2,-4 4,-7 6,-10 3,-3 5,-5 8,-7 3,-2 7,-2 12,-2 35,0 65,0 89,0 24,0 43,0 58,0 15,0 27,0 35,0 7,0 13,0 17,0 4,0 6,0 7,0 1,0 3,0 5,0 10,0 19,7 27,18 8,12 14,27 18,45 0,1 0,3 -1,4 -1,2 -2,3 -4,4 -2,2 -3,3 -5,3 -2,1 -3,1 -4,0zm316 172c0,16 -4,30 -11,43 -8,13 -19,24 -33,34 -12,7 -26,13 -41,17 -15,5 -32,7 -49,7 -32,0 -61,-9 -86,-25 -28,-19 -42,-45 -42,-76l0 -200c0,-10 -5,-16 -15,-19 -10,-4 -16,-8 -16,-15 0,-8 5,-12 13,-12l117 0c8,0 12,4 12,12 0,7 -5,11 -15,15 -11,3 -16,9 -16,19l0 199c0,18 6,33 18,44 12,11 28,17 47,17 22,0 39,-6 53,-17 13,-11 19,-28 19,-50l0 -193c0,-10 -5,-16 -15,-19 -10,-4 -15,-8 -15,-15 0,-8 4,-12 12,-12l82 0c8,0 13,4 13,12 0,6 -6,11 -16,15 -11,3 -16,10 -16,23l0 196zm161 46c1,5 2,9 4,13 2,3 7,5 14,5 14,0 26,0 35,1 9,0 16,0 21,0 6,0 10,0 12,0 3,-1 5,-1 7,-1 6,0 13,-3 21,-9 8,-6 16,-13 25,-21 5,-5 10,-7 15,-7 4,-1 7,3 7,11 0,5 -4,14 -11,29 -2,5 -5,10 -6,14 -2,5 -4,8 -7,11 -2,3 -5,5 -8,6 -3,2 -7,3 -12,3l-216 0c-8,0 -12,-5 -12,-13 0,-6 5,-10 15,-13 11,-4 16,-11 16,-20l0 -255c0,-10 -5,-16 -15,-19 -11,-4 -16,-8 -16,-15 0,-8 4,-12 13,-12l117 0c8,0 13,4 13,12 0,6 -6,11 -16,14 -10,3 -15,10 -15,20l-1 246zm353 55c-9,0 -14,-5 -14,-14 0,-5 4,-9 11,-12 8,-2 14,-6 18,-10 4,-4 6,-9 4,-13l-15 -48c-5,-2 -10,-3 -14,-3 -5,-1 -10,-1 -16,0 -7,1 -14,2 -20,2 -7,0 -13,0 -17,-2 -6,-2 -9,-4 -11,-7 -2,-3 -3,-6 -3,-10 0,-7 2,-11 8,-14 5,-2 12,-3 22,-3 6,0 12,0 19,0 6,0 11,-1 14,-4 0,-4 -2,-11 -5,-21 -4,-11 -7,-21 -11,-33 -4,-11 -8,-22 -12,-31 -3,-10 -6,-16 -7,-19 -5,8 -10,21 -16,38 -6,17 -13,37 -21,61 -10,27 -17,49 -21,65 -4,16 -6,28 -6,34 0,8 4,14 13,17 9,3 14,8 14,13 0,9 -5,14 -14,14l-82 0c-5,0 -7,-2 -8,-4 -1,-3 -1,-6 -1,-11 9,-7 17,-14 25,-20 7,-7 12,-14 15,-20 16,-46 31,-92 45,-137 15,-46 29,-92 45,-138 2,-6 6,-10 11,-13 5,-3 11,-5 17,-5 7,0 14,1 22,4 8,3 13,7 15,12 16,46 32,91 48,137 16,45 32,90 48,136 2,5 5,9 10,13 5,3 12,8 21,15 5,3 9,7 13,9 3,3 5,5 5,8 0,9 -4,14 -13,14l-136 0z"/>
 </g>
</svg>
