<?xml version="1.0" encoding="UTF-8"?>
<!DOCTYPE svg PUBLIC "-//W3C//DTD SVG 1.1//EN" "http://www.w3.org/Graphics/SVG/1.1/DTD/svg11.dtd">
<!-- Creator: CorelDRAW X7 -->
<svg xmlns="http://www.w3.org/2000/svg" xml:space="preserve" width="98.8112mm" height="59.4499mm" version="1.1" style="shape-rendering:geometricPrecision; text-rendering:geometricPrecision; image-rendering:optimizeQuality; fill-rule:evenodd; clip-rule:evenodd"
viewBox="0 0 11925 7175"
 xmlns:xlink="http://www.w3.org/1999/xlink">
 <defs>
  <style type="text/css">
   <![CDATA[
    .fil1 {fill:#52433F}
    .fil0 {fill:#B1CADC}
    .fil2 {fill:#1C457A;fill-rule:nonzero}
   ]]>
  </style>
 </defs>
 <g id="Layer_x0020_1">
  <metadata id="CorelCorpID_0Corel-Layer"/>
  <g id="_745221424">
   <path class="fil0" d="M2877 4176l0 0c13,4 23,7 37,7 7,0 12,-13 25,-12 -3,-3 -6,-7 -10,-9 -16,-1 -46,-8 -52,14zm1099 2144l-116 0 1 -3c8,-17 9,-24 9,-44 0,-19 -23,-2 -34,-11 -9,-7 -35,-20 -33,-32 4,-19 3,-35 19,-44 19,-10 22,-9 25,-31 4,-22 7,-44 10,-66 2,-11 -20,-24 -26,-34 -7,-13 -9,-34 -13,-49 34,6 53,10 75,-18 5,-6 -5,-22 -4,-33 2,-19 -5,-25 -15,-42 30,-2 43,-6 69,-21 26,-16 50,-23 61,-54 3,-11 15,-32 13,-43 -1,-13 -17,-34 -23,-46 -13,-24 -62,-13 -63,-44 14,0 110,12 114,2 17,-42 34,-85 51,-128 18,-46 37,-93 56,-139 4,-12 -3,-30 -5,-42 -2,-10 -18,-63 -12,-70 28,-35 57,-70 85,-105 10,-11 44,-16 57,-21 15,-5 15,-27 20,-42 10,-34 37,-81 29,-118 -12,-55 -24,-110 -36,-165 -4,-22 6,-40 13,-61 15,-44 30,-88 44,-132 12,-36 12,-35 -8,-70l0 0c-9,-16 -18,-32 -27,-49 -2,-3 -39,7 -44,8 -35,-13 -79,-39 -114,-41 -44,-3 -87,-6 -130,-8 -43,-3 -86,-6 -129,-9 -8,0 -23,-16 -29,-21 -25,-18 -50,-37 -76,-56 -24,-18 -61,-59 -91,-58 -33,2 -85,16 -116,0 -48,-25 -97,-50 -145,-76 -26,-13 -53,-6 -81,-4 -52,2 -103,5 -155,8 -20,1 -59,-6 -76,7 -18,13 -36,26 -55,40 -6,5 -33,17 -35,26 -8,29 -34,81 -24,111 -23,-14 -37,-25 -63,-25 -28,-1 -37,13 -59,30 -34,27 -106,-28 -113,-72 -2,-10 3,-20 2,-29 -2,-17 -4,-33 -6,-50 -3,-26 -21,-37 -45,-40 -12,-1 -26,4 -37,5 -10,2 -15,12 -25,14 -26,3 -46,16 -71,14 5,-8 16,-32 9,-41 -9,-10 0,-46 -16,-42 1,-5 2,-13 4,-17 1,8 6,16 13,20 -1,-14 -3,-27 -1,-40 -1,1 -3,3 -4,4l-2 -2c2,-3 4,-7 6,-11 -8,3 -7,-2 -12,-3 8,-3 13,-37 14,-48 3,-30 -29,-12 -41,-10 -10,1 -37,16 -45,23 -18,14 -10,37 -10,59 0,13 -4,17 -10,28 -3,4 5,9 3,12 -2,4 -8,7 -11,10 -4,3 -12,-5 -20,-3 -10,4 -17,8 -26,15 -9,7 -18,14 -28,21 -4,3 -16,-8 -21,-8 -28,0 -38,-15 -60,-34 -38,-32 -54,-64 -68,-111 -6,-19 -3,-40 -4,-60 0,-7 3,-20 0,-26 -3,-10 -20,-17 -23,-27 -9,-33 34,-90 54,-106 12,-10 31,-33 47,-32 8,1 22,5 29,0 13,-9 21,-2 36,4 12,5 14,-13 25,0 -1,-6 1,-9 -3,-16 9,2 27,2 25,13 6,0 13,-6 8,-13 -1,-3 -19,-4 -22,-5 25,-22 -16,-16 -27,-14 12,-16 68,-14 64,-38 13,25 33,-4 50,-4 10,0 23,7 33,10 11,3 19,-7 27,-13 17,-11 31,8 49,14 21,7 12,36 22,52 1,-3 3,-5 5,-7 0,14 8,19 16,29 7,9 15,16 22,27 1,2 22,12 26,15 13,11 17,-2 23,-12 7,-14 -8,-50 -16,-64 -16,-25 -32,-47 -52,-69 -11,-13 -23,-38 -20,-56 6,-36 9,-45 33,-71 7,-7 9,-18 13,-28 5,-11 18,-12 20,-19 3,-9 6,-28 12,-35 3,-3 12,3 16,-1 5,-5 10,-10 15,-15 -10,-3 -15,11 -23,0 6,-2 7,-6 12,-9 -4,-1 -8,-3 -12,-4 6,-3 28,-10 27,-17 -2,-16 -19,-7 -30,-4 11,-8 21,-9 20,-24 -2,-19 -15,-9 -21,-19 -3,-5 -1,-25 -6,-30 -6,-7 -20,-5 -28,-12 8,0 16,2 24,5 -14,-25 -23,-33 -6,-55 7,-9 4,13 4,14 -1,11 1,21 2,32 12,-8 13,6 21,9 -2,10 -4,20 -1,30l3 0c0,-15 7,-34 10,-50 3,-16 -22,-30 -27,-45 8,11 28,13 25,25 7,-11 29,-69 3,-65 3,-13 22,-14 33,-18 12,-4 18,-12 28,-22 -5,2 -10,2 -14,4 1,-2 3,-4 4,-6 -16,7 -27,20 -43,26 19,-22 31,-27 57,-37 9,-3 2,-19 8,-20 12,0 27,3 36,-8 -3,-3 -7,-6 -10,-7 1,2 3,4 5,6 -36,15 -24,-43 -22,-59 1,-11 -1,-18 7,-25 13,-9 19,-13 22,-30 3,1 5,3 8,4 2,-14 53,-18 36,-43 6,-2 17,-2 19,-8 6,-12 9,-2 15,-9 9,-10 21,-33 35,-33 -2,7 -6,15 -4,21 8,-10 24,-10 36,-13 -7,11 -10,24 -22,19 -6,-3 -3,-14 -12,-3 -11,15 -49,50 -23,71 6,0 18,9 24,-1 9,-16 14,-37 23,-50 5,-7 11,8 17,-1 4,-7 10,-11 16,-15 15,-12 31,-24 46,-36 -4,-2 -7,-7 -12,-8 17,-2 27,-14 39,-24 9,-7 -14,-21 -23,-8 0,-14 5,-32 -13,-33 -5,16 -24,47 -6,59 -3,3 -8,7 -12,8 -1,-3 -3,-6 -5,-10 -14,19 -37,16 -61,12 1,-1 2,-3 3,-5 -15,1 -40,-9 -39,-30 -4,2 -10,2 -13,5 6,-9 10,-20 9,-31 -10,0 -17,4 -25,9 0,1 -18,-10 -24,-10 11,-14 26,2 35,-12 6,-11 29,-27 7,-34 3,0 7,0 10,0 -31,-39 -88,19 -109,38 -31,28 -40,73 -71,101 17,-22 20,-48 32,-73 7,-13 13,-32 22,-43 6,-7 31,-18 31,-28 -4,-38 27,-37 54,-47 30,-11 58,-18 90,-24 32,-6 48,-14 62,-43 7,-14 10,-23 22,-32 12,-8 25,-9 36,-15 7,-4 25,-23 28,-31 5,-19 -12,-19 -11,-34 1,-8 4,-34 -10,-35 -17,0 -31,-7 -36,14 -11,-7 4,-11 -5,-23 -6,-9 -24,-5 -32,-2 5,2 7,4 15,3 -12,4 -24,11 -33,20 -3,4 1,7 -6,12 -7,5 -11,7 -14,16 -4,10 -15,-12 -4,-19 11,-8 32,-15 36,-29 -9,6 -20,16 -30,15 14,-9 27,-19 42,-26 26,-12 -2,-17 -17,-22 -22,-7 -32,-5 -54,1 -12,2 -6,-10 -14,-17 -6,-6 -21,-9 -29,-12 -3,-1 -20,-5 -21,-9 -4,-7 7,-23 4,-31 -6,-15 -36,-34 -48,-45 -10,-11 -25,-30 -41,-45 356,-105 733,-161 1123,-161 61,0 121,1 182,4 -6,9 -12,20 -17,33 12,-6 23,-16 37,-15 -8,4 -26,9 -29,18 -3,10 -8,15 -17,19 5,0 11,2 17,1 -5,4 -9,9 -14,12 7,0 15,0 22,0l0 0c-3,3 -4,8 -7,11 36,17 63,-39 89,-55 8,-5 18,2 18,-11l0 -7c20,1 40,3 60,4 -7,6 -16,11 -21,14 3,3 5,9 4,8 14,13 20,-11 36,-7 -1,2 -2,4 -4,6 6,-2 23,3 25,2l24 -17 3 0c-4,8 -8,15 -7,24 -20,3 -43,0 -43,27 1,14 -19,31 -25,45 20,7 30,-34 59,-22 4,-38 17,-12 39,-31 6,-6 18,-22 26,-24 11,-2 17,9 28,3 8,-4 14,-7 21,-10 17,2 33,4 50,7 3,5 5,11 -4,18 -11,10 -27,19 -33,34 5,-1 9,2 14,1 -16,11 -23,15 -42,17 -10,2 -9,1 -15,-9 -4,-6 -15,-1 -22,1 10,11 17,21 23,34 4,9 -26,22 -31,25 -15,8 -9,-27 -29,-3 -10,12 -26,14 -39,19 2,9 9,14 18,16 -3,1 -6,4 -9,6 8,7 14,7 23,4 12,-4 17,0 29,5 3,1 17,-2 23,-1 6,1 3,10 15,3 -1,9 7,32 22,33 25,0 23,9 30,34 7,26 28,88 -2,104 -11,5 -34,8 -47,7 -18,-2 -31,12 -51,11 -26,-1 -34,3 -57,15 -16,9 -31,-12 -46,11 2,1 4,3 5,6 -7,3 -28,9 -30,20 -1,12 11,27 20,15 1,20 3,42 16,58 14,17 8,53 8,75 1,22 -7,29 11,45 3,3 8,-8 10,-1 3,7 5,14 7,20 5,12 5,25 6,37 11,-15 27,-4 41,-18 17,-17 32,8 46,-4 -13,16 18,39 30,31 14,-8 18,-34 37,-38 21,-5 42,-9 62,-17 7,-3 9,-23 11,-30 3,-8 19,-13 26,-17 -10,-10 6,-32 10,-44 8,-20 -20,-22 -17,-33 11,-39 14,-68 42,-94 9,-9 34,-23 39,-36 5,-13 -16,-40 -13,-45 6,-9 16,-35 27,-35 22,1 44,3 66,4 8,0 56,-61 60,-70 6,-12 22,-12 35,-9 25,6 26,7 39,32 15,27 46,29 73,44 15,9 29,22 44,16 9,-4 37,7 38,18 7,-7 21,-6 22,7 1,10 17,7 23,6 6,-1 37,42 30,47 -9,9 2,14 -6,23 -8,9 -27,14 -38,20 -9,5 -51,12 -57,9 -21,41 55,17 68,39 7,11 38,-3 26,-16 -12,-13 -14,-34 -1,-47 6,25 30,-11 24,-26 -5,-10 33,-26 5,-38 -10,-4 -17,-1 -18,-14 0,-14 0,-16 8,-28 7,-12 38,14 48,16 13,-33 -77,-45 -96,-53 13,-19 -6,-13 -17,-11 -18,4 -28,-4 -44,-12 -14,-7 -18,-26 -30,-36 -12,-9 -33,-13 -46,-18 -17,-7 -7,-29 -13,-36 -18,-18 -7,-23 11,-34 18,-11 13,-14 21,3 8,17 22,27 23,0 23,9 27,15 40,37 5,7 29,26 37,25 32,-4 67,15 97,28 23,10 31,7 35,33 5,27 1,41 26,52 13,6 25,26 37,37 21,18 22,21 47,15 -21,29 -13,30 7,62 8,-11 12,-16 21,-6 9,12 19,7 32,6 -8,-13 -15,-17 -6,-29 8,-11 4,-21 -12,-19 8,-19 20,-10 34,-4 -4,-30 -27,-29 -50,-38 11,-19 11,-17 -5,-33 -10,-11 -27,-20 -19,-36 14,5 25,12 35,-2 3,-4 -9,-14 -4,-18 7,-5 14,-13 22,-13 1,0 2,0 3,0 19,7 38,14 57,21 1,2 1,4 2,7l3 -5 2 1c-4,7 -5,14 -1,23 8,-3 16,-6 24,-9 -17,34 41,91 68,98 15,4 46,19 61,11 16,-7 16,-6 17,-24 1,-15 13,-11 26,-12 4,0 7,0 11,1 25,12 50,24 75,36 -2,1 -4,2 -6,2 -6,1 -32,3 -34,14 -8,36 53,0 59,-4 -1,-1 -2,-3 -3,-4 21,10 43,21 64,32 -2,31 -10,63 -11,78 -3,45 -52,63 -88,56 -30,-5 -32,0 -55,20 -22,19 -25,20 -53,20 -26,-1 -51,-2 -76,-2 -6,0 -14,17 -19,11 -9,-10 -11,-16 -24,-15 -15,1 -31,2 -46,3 -10,1 -8,-16 -15,-16 -34,1 -48,10 -78,27 -6,4 -8,26 -9,34 -3,9 15,18 13,28 -9,41 -25,40 -59,27 -24,-8 -44,1 -68,-3 -28,-4 -28,-33 -55,-33 -35,0 -70,0 -105,1 -21,0 -46,-20 -65,-29 7,-13 30,-41 19,-53 -24,-25 -22,-27 -16,-61 -21,-3 -42,-13 -57,3 -19,20 -38,20 -64,26 -9,2 -20,2 -28,5 -9,5 -15,19 -25,22 -8,3 -22,-1 -31,-2 -11,0 -26,10 -36,14 -37,15 -77,43 -108,69 -17,14 -32,33 -47,49 -4,3 -25,-5 -30,-6 -9,-2 -26,12 -34,16 -18,9 -44,-18 -50,-15 -21,13 -17,47 -20,73 -4,38 -71,63 -67,99 4,30 7,61 11,91 3,25 -6,27 -22,45 -30,33 -53,51 -64,96 -16,64 -31,128 -47,192 -2,11 -11,30 -10,42 3,19 25,47 34,64 13,25 26,49 39,74 8,15 -1,47 -3,63 0,9 -9,45 -2,52 15,15 30,30 45,45 47,47 94,93 141,140 29,29 47,35 85,49 30,11 60,23 90,34 12,5 31,18 42,10 23,-17 47,-33 70,-49 19,-13 34,-10 57,-10 22,-1 32,2 48,-13 20,-18 41,-37 61,-55 11,-10 107,-54 117,-47 22,16 44,32 66,47 15,12 45,-8 61,-13 27,-9 27,-7 52,13 21,17 20,19 24,47 5,33 10,65 15,98 2,16 0,34 13,44 23,18 47,36 70,55 12,9 38,22 46,36 25,48 51,95 76,142 24,44 49,76 36,128 -13,54 -1,105 6,162 2,12 0,34 8,43 19,22 38,43 57,65 29,32 59,60 77,101 14,30 27,61 41,91 5,11 15,50 25,55 16,9 40,16 51,31 18,25 37,49 56,74 8,11 31,33 34,47 6,39 5,38 37,55 10,5 39,27 49,22 20,-11 41,-22 62,-32 45,-23 90,-46 135,-69 12,-6 25,-37 33,-49 14,-20 30,-40 42,-62 22,-42 34,-94 51,-139 5,-14 -9,-54 -12,-69 -5,-29 -12,-38 7,-54 12,-11 50,-32 54,-47 6,-18 -9,-59 -12,-79 -2,-16 -33,-43 -43,-55 -15,-19 0,-32 10,-52 11,-23 22,-46 33,-69 8,-18 39,-35 53,-47 26,-22 43,-72 32,-109 -16,-48 -23,-112 -62,-143 -26,-20 -28,-22 -35,-55 -8,-36 -9,-42 -37,-65 -15,-14 28,-127 34,-148 25,-96 84,-179 130,-264 17,-33 22,-71 31,-108 9,-43 29,-91 27,-137 0,-11 5,-68 -3,-75 -12,-12 -37,8 -46,13 -50,28 -99,57 -148,86 -15,8 -47,-26 -68,-27 21,-35 -23,-49 -47,-65 -15,-10 -30,-20 -44,-30 -10,-7 -38,3 -44,-6 -20,-27 -38,-65 -62,-87 -12,-11 -32,-18 -46,-25 -12,-6 -17,-30 -22,-41 -9,-20 -18,-40 -26,-59 -5,-12 -28,-20 -38,-26 -23,-14 -26,-43 -44,-64 -31,-35 -62,-70 -93,-106 -16,-17 -56,-45 -45,-72 25,29 44,47 75,66 2,-23 3,-46 4,-70 3,19 5,38 7,56 18,-10 31,13 43,26 25,25 49,49 73,74 11,11 27,14 37,24 16,18 37,35 47,58 7,14 19,58 35,60 28,3 31,6 52,27 36,34 68,60 90,105 14,29 28,58 42,88 14,28 15,21 44,13 19,-5 17,-26 33,-35 22,-12 43,-26 65,-37 11,-6 20,-6 23,-19 3,-9 4,-14 11,-19 24,-17 49,-34 74,-52 13,-9 5,-31 20,-43l14 -12c871,730 1425,1825 1425,3050l-3976 0zm-379 0l-3597 0c0,-1119 462,-2130 1206,-2852 14,4 30,8 46,11 33,2 27,-7 5,-28l0 0c-6,-6 -17,-4 -24,-4 -2,0 -3,-1 -5,-1 8,-7 15,-14 23,-21 7,4 15,8 23,13 28,16 28,21 36,53 -24,-1 -47,-2 -71,-1 23,34 39,56 49,95 9,41 18,81 28,122 12,49 20,78 46,120 21,32 55,43 79,71 16,19 33,38 49,56 15,18 21,14 43,14 27,-1 68,12 86,35 16,22 32,43 48,64 10,13 20,34 35,36 23,4 32,12 51,28 21,18 -5,29 -16,33 12,6 24,12 36,18 11,5 17,0 27,4 10,4 29,7 33,18 3,8 8,35 15,37 25,9 51,16 71,36 9,9 21,2 19,-13 -2,-11 -20,-20 -29,-24 -8,-2 -12,16 -20,-6 -4,-14 -13,-23 -22,-35 -8,-11 -15,-23 -26,-29 -16,-7 -22,-10 -33,-25 -19,-24 -41,-37 -67,-55 -16,-11 -32,-49 -43,-67 20,3 39,6 59,9 10,2 32,49 38,58 11,17 28,19 45,26 21,8 37,20 55,34 4,3 18,9 18,15 1,6 -1,20 4,22 24,13 48,24 72,37 15,7 25,14 38,25 11,10 47,31 47,47 0,25 -7,38 14,50 23,12 46,25 69,38 8,5 25,3 34,4 31,3 61,6 91,9 37,4 80,19 112,-2 14,-10 29,-28 45,-19 25,14 51,27 76,41 29,15 77,4 108,3 39,0 63,22 98,45 14,9 16,30 28,40 14,13 45,18 62,24 8,3 16,7 24,10 5,2 7,-7 14,-8 13,-1 42,15 43,1 17,21 15,18 35,3 -4,-4 -19,-14 -17,-19 6,-9 10,-18 18,-25 10,-10 9,-11 22,-7 18,4 19,1 19,22 1,16 40,20 41,37 1,7 10,22 9,24 -6,11 3,15 8,26 22,50 4,79 -14,124 -8,20 -16,40 -24,61 -6,13 1,43 2,58 2,29 -8,83 13,105 35,36 70,72 105,108 42,43 84,86 127,130 21,21 32,35 59,44 27,9 53,19 80,27 14,5 43,9 54,19 11,9 19,43 24,56 9,21 22,43 28,64 6,26 5,56 7,82 6,60 12,121 18,182 9,100 19,201 29,301 7,79 27,160 40,238l22 128zm-1548 -3479c124,-68 251,-131 382,-186 3,2 7,5 13,10 13,10 28,17 43,25 21,12 33,64 25,87 -9,26 -45,53 -62,73 9,8 28,19 34,30 9,20 19,41 29,61 9,20 -19,76 -45,58 -26,-19 -67,-35 -76,-69 -6,-25 -12,-49 -18,-74 -1,-7 -35,3 -41,4 -18,4 -36,7 -54,10 -12,2 -37,-13 -49,-17 -37,-13 -65,-17 -104,-20 -13,-1 -30,-5 -41,1 -19,11 -24,20 -36,7zm634 -282c37,-13 73,-25 110,-36 0,11 -4,24 -6,35 -4,-2 -9,-1 -13,-3 7,78 -93,-23 -96,37 -12,-6 -1,-22 5,-33zm-187 681l0 0c0,2 -1,4 -2,6l3 1c3,-8 5,-11 1,-17 -1,2 -2,4 -2,6 -6,-9 -14,-8 -21,-2 -8,7 -15,-1 -22,9 2,0 5,-1 8,-1 11,2 28,7 35,-2zm-63 -6l0 0c-7,-2 -8,1 -9,2 3,2 5,3 8,5 0,-2 0,-4 1,-7zm17 10l0 0c0,-1 -1,-2 -1,-4 -3,-1 -6,-1 -10,-2 -1,2 -3,5 -4,7 5,1 11,0 15,-1zm727 -435l0 0c1,-9 3,-19 4,-28 -26,-3 -43,37 -45,61 -5,39 -13,59 -31,93 -3,6 2,33 7,38 9,7 29,-1 37,-5 26,-11 54,-18 83,-12 -8,6 -13,14 -9,24 23,-12 23,-30 47,-39 2,19 0,20 18,22 15,1 17,1 21,-14 5,-16 -14,-44 -21,-58 -5,-8 -23,-8 -24,-13 -2,-17 -5,-17 -18,-26 -11,-7 -41,15 -50,21 -3,-6 -5,-20 -11,-21 -5,-1 -16,1 -17,-5 -6,-19 -1,-22 9,-38zm21 1280l0 0c11,15 36,-7 40,-19 -2,-1 -4,-3 -6,-4 -14,3 -51,2 -34,23zm-254 10l0 0c11,-6 21,-13 32,-20 -12,-5 -21,-10 -33,-9 -8,1 -16,-10 -20,-8 -16,6 -38,2 -54,-10 0,2 0,4 -1,5 -40,-12 -83,-22 -124,-15 -24,5 -40,15 -62,27 -17,10 -16,30 -29,43 34,7 49,-69 86,-48 -4,4 -6,7 -14,7 7,5 17,7 24,2 8,-6 11,1 21,-1 16,-4 35,3 53,0 16,-2 22,17 42,20 5,0 22,-9 25,3 1,4 -11,19 -12,23 22,-2 43,-14 66,-19zm43 -1061l0 0c-7,30 19,27 38,30 20,3 22,-8 30,-25 -18,4 -37,8 -55,11 -4,-5 -9,-10 -13,-16zm-44 -110l0 0c22,9 72,31 90,7 -28,-18 -62,-16 -90,-7zm-340 386l0 0c4,12 -33,33 -45,36 -18,5 -19,6 -29,22 -7,10 -10,21 -25,19 -1,-10 6,-17 12,-22 -6,-5 -5,0 -10,-8 -6,15 -11,28 -14,44 7,0 14,0 21,0 -1,2 -1,4 -2,7 26,-5 34,-21 54,-36 19,-15 31,-29 47,-49 -2,-7 -2,-10 -9,-13zm32 -18l0 0c26,13 57,-36 33,-39 5,-7 9,-14 14,-21 -11,9 -32,36 -42,35 -17,-3 -35,13 -50,21 -21,55 27,-5 45,4zm-444 -16l0 0c14,2 23,-9 34,-16 0,3 -1,6 -1,8 33,7 57,-62 83,-52 -9,6 -15,19 -15,30 8,-8 18,-11 27,-4 10,8 15,1 26,4 4,1 41,-25 48,-28 0,13 11,7 20,8 6,1 12,11 19,15 -10,1 -22,-2 -23,11 -19,-12 -45,5 -50,25l-3 -1c1,-3 1,-6 2,-9 -3,4 -6,5 -9,10 -1,-2 -2,-5 -4,-7 -7,13 -16,44 -14,58 12,-1 11,-24 19,-33 4,10 -2,29 -1,41 0,16 -3,34 3,50 8,23 38,81 48,26 5,-29 -4,-45 -16,-69 -14,-27 6,-37 9,-58 1,6 3,11 4,17 5,-11 -2,-25 13,-31 -18,-13 10,-18 20,-12 11,7 23,-1 31,14 -2,0 -2,0 -5,1 8,7 15,22 7,31 -1,2 -10,18 -7,23 5,8 21,-19 26,-20 12,-3 22,28 26,37 5,-10 9,-19 14,-28 2,-6 -5,-18 -5,-25 1,-16 11,-36 -13,-40 13,-12 12,10 24,4 -1,5 0,5 -2,10 4,1 4,1 6,4 5,-9 21,-3 28,-7 1,-1 -7,-13 7,-9 -17,-9 -25,-39 -48,-37 -20,1 -43,7 -64,9 -7,0 -49,0 -48,-6 1,-6 -3,-9 -8,-12 -5,-4 2,-10 -1,-14 -8,-13 -18,-2 -16,-24 -27,13 -31,1 -52,-17 -11,-10 -16,7 -25,5 -11,-1 -22,-5 -32,-1 13,6 6,15 -2,23 2,-5 2,-10 1,-16 -7,7 -3,18 -10,24 0,-3 0,-7 0,-11 -14,7 -3,19 -13,27 -11,9 -22,19 -33,28 -9,15 -17,29 -25,44zm-224 -160l0 0c-2,-12 -2,-6 4,-12 1,3 1,6 1,9 1,-3 2,-3 2,-6 10,1 11,13 12,23 1,-6 4,-13 11,-12 5,1 1,15 1,20 3,-5 7,-6 9,-8 -9,10 -7,25 1,37 7,11 11,-5 8,-12 3,1 6,0 8,1 -8,-10 -2,-25 -12,-29 -9,-4 -19,-20 -25,-28 -10,-13 -56,-67 -46,-78l-3 0c-3,6 -4,6 -10,9 0,-8 3,-13 8,-17 -1,-1 -6,-3 -8,-4 -4,19 -2,24 13,30 -11,-2 -33,-6 -33,12 1,29 4,23 25,22 -21,12 15,31 24,41 3,1 6,1 10,2zm1069 1013l0 0c7,0 17,-7 23,-6 5,1 10,22 20,14 5,-3 0,-22 3,-27 7,-8 12,-1 15,-1 15,-5 24,-14 42,-19 12,-3 13,9 18,-9 2,-7 -14,-11 -20,-11 -15,2 -16,2 -27,-10 -9,-9 -8,-2 -18,-2 -7,-1 -21,-5 -27,1 -2,3 -14,10 -17,11 -21,5 -29,0 -46,16 24,3 23,11 42,26 -10,14 -69,7 -57,25 21,7 26,-5 49,-8zm2452 -1315l0 0c-2,-12 -27,-10 -37,-5 -20,9 -27,6 -49,0 -2,4 -4,14 -3,18 34,2 57,-3 89,-13zm-616 -61l0 0c2,5 -4,16 -4,22 1,2 10,4 11,7 1,15 -11,20 4,28 12,6 22,5 19,-10 -1,-9 14,-5 11,-21 -2,-16 -4,-33 -7,-50 -5,-34 -37,-4 -44,5 -4,-1 -7,-1 -11,-1 -1,19 15,9 21,20zm-23 -77l0 0c-9,13 18,28 28,24 1,-27 0,-39 -10,-65 -9,5 1,10 -2,19 -3,8 -11,15 -16,22zm-164 159l0 0c8,3 16,6 23,10 5,-7 9,-13 14,-19 -18,-19 -22,-6 -37,9zm2020 1503l0 0c-12,-10 -49,-43 -40,-3 7,31 -1,34 -15,61 -10,22 -13,41 -31,57 -19,17 -34,29 -56,40 -9,4 -8,48 -2,59 9,18 32,46 35,66 3,22 -15,50 -16,72 -2,27 9,44 22,66 12,20 21,42 31,64 4,8 46,12 53,6 5,-4 42,-27 42,-30 0,-18 1,-37 1,-56 2,-68 4,-136 5,-204 2,-47 -1,-67 -17,-111 7,4 14,8 21,12 5,-38 -15,-63 -32,-98l-1 -1z"/>
   <path class="fil1" d="M1568 2352c-28,97 -58,146 -84,238 -23,79 -36,156 -59,235 -44,153 -64,341 -106,479 -19,186 -59,352 -79,537 -29,262 -38,320 -7,520 10,65 44,71 95,116 30,27 63,50 135,67 29,-321 -180,-324 -155,-716 94,56 86,203 162,353 92,182 102,184 284,255 1,-96 1,-95 -16,-135 -5,-10 -18,-50 -28,-51 -53,-9 -33,8 -111,37 -86,-174 -207,-456 -65,-618 56,-64 35,26 66,-88 -106,-93 -108,-241 -100,-435 9,-222 -18,-374 189,-407 150,-36 209,-251 308,-448 180,58 41,149 368,171 188,13 309,68 451,-10l15 -152c-195,-332 -381,-996 -512,-1131 -199,-203 -428,117 -470,275 -67,258 136,511 56,715 -191,94 -221,-51 -337,193zm1664 -2352c28,5 55,10 83,14 15,6 14,13 12,27l-66 494c117,29 233,57 349,86 30,7 25,26 24,51 -1,22 -2,44 -3,66 -1,26 -20,29 -42,24l-346 -86 -250 1893c-34,-12 -85,-72 -96,-149l234 -1777 -330 -81c-8,-3 -13,-7 -14,-19l5 -112c4,-7 14,-12 27,-11l331 82c22,-163 43,-326 64,-489 4,-8 5,-12 18,-13zm-1587 3648c34,456 45,218 149,437 71,152 146,284 98,396 -62,146 -128,82 -209,193l57 152 4 -9 162 321 -97 46 23 216c20,184 -50,66 -75,-28l-132 -501 -29 -126c-68,8 -36,-22 -47,53 41,184 70,382 102,541 34,173 60,436 106,566 67,213 117,468 48,722 -12,45 8,63 51,85 51,26 115,53 150,74 5,266 17,383 279,389 58,1 119,-2 113,-82 -9,-114 -63,-134 -67,-311 2,-6 7,-16 12,-22 127,-14 249,-35 371,-59 -12,45 -28,86 -42,151 -3,13 1,33 18,34 319,28 326,-32 343,-254l12 -3c162,-39 197,-80 325,-169 204,-158 182,-368 179,-662 -5,-339 -90,-902 -87,-961 -4,-6 -6,-15 -7,-19 -1,-5 -5,-14 -6,-20 -2,-6 -4,-14 -6,-20 -77,-291 -151,-207 -230,-576l-113 -270 -18 -8 -12 -74c-34,-99 -92,-521 -98,-645 -10,-209 67,-548 -107,-652 -65,-42 -635,-82 -720,-56 -110,33 -118,131 -171,216 -29,47 -122,117 -190,141 -19,6 -34,28 -49,42 -34,34 -31,28 -50,98 -49,211 -15,437 -40,654z"/>
   <path class="fil2" d="M4623 3296c-27,34 -55,74 -83,119 -29,46 -59,93 -91,142 -32,49 -66,97 -101,146 -35,48 -73,91 -114,129 -19,-15 -42,-38 -69,-68 -26,-31 -54,-65 -83,-103 -29,-38 -59,-77 -89,-117 -30,-41 -57,-77 -81,-112 -25,-33 -46,-62 -65,-84 -18,-22 -30,-34 -35,-36 -2,3 -3,6 -3,11 -1,3 -1,14 -1,29 0,16 0,39 0,70 0,32 0,75 0,131 0,55 0,126 0,211 0,85 0,188 0,311 0,28 23,55 71,81 13,7 26,14 38,23 13,8 18,17 17,28 -3,15 -7,28 -14,39 -7,10 -20,16 -39,16l-326 0c-34,0 -51,-18 -51,-55 0,-14 21,-31 63,-53 44,-23 65,-49 65,-79l0 -1038c0,-36 -21,-62 -65,-77 -42,-14 -63,-33 -63,-57 8,-10 16,-21 22,-35 7,-13 17,-20 29,-20l255 0c17,9 40,29 67,60 27,30 56,66 87,107 32,41 64,84 96,131 33,47 63,91 92,131 29,41 54,77 77,108 24,30 40,49 51,58 10,-3 24,-17 42,-41 19,-25 38,-54 60,-88 22,-34 44,-70 66,-109 23,-38 43,-74 63,-106 19,-32 34,-58 44,-79 11,-21 17,-31 17,-30 62,-95 115,-142 159,-142l291 0c34,0 51,18 51,55 0,13 -21,31 -63,53 -41,21 -61,49 -61,81l0 1038c0,28 23,55 69,81 13,7 26,13 38,18 11,6 17,17 17,33 0,14 -4,26 -11,38 -8,11 -21,17 -40,17l-474 0c-33,0 -49,-18 -49,-55 0,-14 21,-31 63,-53 41,-22 61,-48 61,-79l0 -779zm1267 966c-38,0 -57,-18 -57,-55 0,-22 15,-38 43,-49 31,-11 56,-25 73,-42 18,-17 24,-35 17,-54l-61 -195c-21,-6 -40,-10 -58,-11 -19,-3 -40,-3 -64,-1 -28,6 -55,10 -82,11 -27,0 -50,-3 -69,-9 -22,-7 -37,-16 -45,-28 -8,-12 -12,-25 -12,-40 0,-28 10,-47 31,-57 21,-9 52,-14 93,-14 22,0 46,0 74,1 28,1 48,-5 60,-17 -2,-17 -10,-46 -23,-87 -13,-41 -27,-85 -44,-131 -16,-47 -32,-89 -47,-129 -15,-39 -25,-65 -30,-77 -18,35 -39,87 -64,156 -24,68 -53,151 -87,249 -39,109 -68,197 -85,263 -17,67 -25,112 -25,137 0,34 18,57 55,71 37,13 55,31 55,53 0,37 -19,55 -57,55l-332 0c-19,0 -30,-5 -34,-15 -3,-10 -5,-25 -5,-44 37,-29 71,-56 102,-84 31,-27 52,-54 63,-81 65,-186 127,-372 185,-556 57,-185 118,-372 180,-561 9,-23 25,-41 46,-54 21,-13 43,-19 68,-19 29,0 59,5 89,16 32,11 52,27 62,49 65,186 130,371 195,555 65,184 131,370 196,555 7,21 20,38 40,53 21,14 49,34 86,62 19,13 36,26 51,36 15,11 22,22 22,33 0,37 -18,55 -55,55l-550 0zm1646 -966c-27,34 -55,74 -83,119 -29,46 -59,93 -91,142 -32,49 -66,97 -101,146 -35,48 -74,91 -114,129 -19,-15 -42,-38 -69,-68 -26,-31 -54,-65 -83,-103 -29,-38 -59,-77 -89,-117 -30,-41 -57,-77 -81,-112 -25,-33 -46,-62 -65,-84 -18,-22 -30,-34 -35,-36 -2,3 -3,6 -3,11 -1,3 -1,14 -1,29 0,16 0,39 0,70 0,32 0,75 0,131 0,55 0,126 0,211 0,85 0,188 0,311 0,28 23,55 71,81 13,7 26,14 38,23 13,8 18,17 17,28 -3,15 -8,28 -14,39 -7,10 -20,16 -39,16l-326 0c-34,0 -51,-18 -51,-55 0,-14 21,-31 63,-53 44,-23 65,-49 65,-79l0 -1038c0,-36 -21,-62 -65,-77 -42,-14 -63,-33 -63,-57 8,-10 16,-21 22,-35 7,-13 17,-20 29,-20l255 0c17,9 40,29 67,60 27,30 56,66 87,107 32,41 64,84 96,131 33,47 63,91 92,131 29,41 54,77 77,108 24,30 40,49 51,58 10,-3 24,-17 42,-41 19,-25 38,-54 60,-88 22,-34 44,-70 66,-109 23,-38 43,-74 63,-106 19,-32 34,-58 44,-79 11,-21 17,-31 17,-30 62,-95 115,-142 159,-142l291 0c34,0 51,18 51,55 0,13 -21,31 -63,53 -41,21 -61,49 -61,81l0 1038c0,28 23,55 69,81 13,7 26,13 38,18 11,6 17,17 17,33 0,14 -4,26 -11,38 -8,11 -21,17 -40,17l-474 0c-33,0 -49,-18 -49,-55 0,-14 21,-31 63,-53 41,-22 61,-48 61,-79l0 -779zm1163 966c-38,0 -57,-18 -57,-55 0,-22 14,-38 43,-49 31,-11 55,-25 73,-42 18,-17 23,-35 16,-54l-61 -195c-20,-6 -39,-10 -58,-11 -18,-3 -39,-3 -64,-1 -27,6 -54,10 -81,11 -28,0 -50,-3 -70,-9 -21,-7 -36,-16 -44,-28 -8,-12 -13,-25 -13,-40 0,-28 11,-47 32,-57 21,-9 52,-14 92,-14 22,0 47,0 75,1 28,1 48,-5 60,-17 -3,-17 -10,-46 -23,-87 -13,-41 -28,-85 -44,-131 -16,-47 -32,-89 -47,-129 -15,-39 -25,-65 -31,-77 -17,35 -38,87 -63,156 -24,68 -53,151 -87,249 -40,109 -68,197 -85,263 -17,67 -25,112 -25,137 0,34 18,57 55,71 36,13 55,31 55,53 0,37 -19,55 -57,55l-333 0c-18,0 -30,-5 -33,-15 -3,-10 -5,-25 -5,-44 37,-29 70,-56 102,-84 31,-27 52,-54 63,-81 65,-186 127,-372 184,-556 58,-185 118,-372 180,-561 10,-23 25,-41 46,-54 21,-13 44,-19 69,-19 28,0 58,5 89,16 31,11 52,27 61,49 66,186 131,371 196,555 65,184 130,370 195,555 7,21 21,38 41,53 21,14 49,34 86,62 19,13 36,26 51,36 15,11 22,22 22,33 0,37 -18,55 -55,55l-550 0zm-3809 1842c-38,0 -58,-19 -58,-55 0,-22 15,-39 43,-49 32,-11 56,-25 74,-42 17,-17 23,-35 16,-54l-61 -196c-20,-5 -40,-9 -58,-11 -19,-2 -40,-2 -64,-1 -28,7 -55,11 -82,11 -27,1 -50,-2 -69,-9 -22,-7 -37,-16 -45,-28 -8,-11 -12,-24 -12,-39 0,-29 10,-48 31,-57 21,-10 52,-14 93,-14 22,0 47,0 74,1 28,0 48,-6 60,-18 -2,-16 -10,-45 -23,-86 -13,-42 -27,-86 -44,-132 -16,-46 -32,-89 -47,-128 -14,-40 -25,-65 -30,-78 -18,36 -39,88 -63,156 -25,69 -54,152 -88,250 -39,109 -67,196 -84,263 -18,66 -26,112 -26,136 0,34 19,58 55,71 37,14 55,32 55,54 0,36 -19,55 -57,55l-332 0c-19,0 -30,-6 -33,-16 -4,-10 -6,-24 -6,-44 37,-28 71,-56 102,-83 32,-27 52,-55 64,-82 65,-186 126,-371 184,-556 57,-184 118,-372 180,-560 10,-23 25,-41 46,-54 21,-13 44,-20 68,-20 29,0 59,6 90,17 31,10 51,27 61,49 65,186 130,371 195,555 66,184 131,369 196,555 7,21 20,38 41,52 20,14 49,35 85,62 19,14 36,26 51,37 15,11 22,22 22,33 0,36 -18,55 -55,55l-549 0zm1725 -1225c0,61 0,133 2,215 1,82 2,167 4,256 1,87 2,175 3,261 0,87 0,164 -1,233 -2,70 -4,126 -7,171 -4,44 -9,67 -16,70 -8,8 -19,14 -32,19 -13,5 -26,8 -40,8 -15,1 -28,-1 -41,-5 -13,-4 -24,-11 -32,-22 -54,-74 -110,-150 -168,-229 -58,-80 -117,-160 -179,-240 -62,-80 -125,-160 -191,-239 -65,-80 -131,-157 -197,-231l-2 770c0,36 21,61 63,75 42,13 63,33 63,57 0,37 -17,55 -51,55l-326 0c-34,0 -51,-18 -51,-55 0,-23 21,-41 63,-55 42,-14 63,-39 63,-77l0 -1037c0,-38 -21,-64 -63,-78 -42,-13 -63,-32 -63,-57 0,-36 17,-55 51,-55l281 0c12,0 34,16 65,48 30,32 66,73 107,122 40,50 85,106 133,169 48,62 96,123 143,184 47,60 91,117 133,170 43,53 79,96 110,128 0,-1 1,-3 1,-7 1,-3 1,-11 0,-23 0,-13 -1,-31 -1,-57 0,-26 0,-62 -1,-108 0,-46 0,-105 0,-175 1,-71 1,-158 1,-261 0,-36 -27,-63 -83,-84 -27,-10 -41,-27 -41,-49 0,-36 17,-55 51,-55l322 0c35,0 53,19 53,55 0,24 -21,42 -63,55 -42,14 -63,40 -63,78zm1328 115c-27,-19 -48,-35 -63,-48 -15,-13 -32,-31 -51,-56 -29,-35 -98,-53 -208,-53 -45,0 -67,20 -67,60l0 1019c0,38 21,64 63,77 42,14 63,33 63,58 0,35 -17,53 -53,53l-472 0c-34,0 -51,-18 -51,-53 0,-28 13,-44 39,-49 57,-17 85,-52 85,-106l-2 -999c0,-20 -3,-34 -11,-44 -7,-10 -22,-16 -44,-16 -28,0 -53,0 -75,-1 -22,0 -42,1 -61,5 -19,3 -37,10 -55,22 -18,11 -36,29 -55,54 -42,54 -73,81 -94,81 -35,0 -53,-16 -53,-49 0,-27 15,-67 45,-122 11,-20 21,-38 30,-55 8,-16 17,-30 26,-42 9,-12 20,-22 32,-28 12,-7 28,-11 47,-11 145,0 266,0 363,0 97,0 176,0 237,0 61,0 107,0 139,0 32,0 56,0 71,0 15,0 25,0 29,0 5,0 11,0 20,0 40,3 77,29 110,78 32,48 57,108 73,180 1,6 0,12 -4,18 -4,6 -10,12 -16,17 -7,5 -14,9 -21,11 -7,2 -12,2 -16,-1zm1285 698c0,65 -15,124 -46,177 -32,53 -75,99 -131,137 -50,31 -107,55 -169,72 -62,17 -128,26 -198,26 -133,0 -250,-34 -350,-102 -113,-78 -169,-181 -169,-310l0 -813c0,-38 -22,-64 -64,-78 -42,-13 -62,-32 -62,-57 0,-35 17,-53 50,-53l474 0c34,0 51,18 51,53 0,25 -21,44 -63,58 -42,13 -63,39 -63,77l0 809c0,75 24,135 73,181 49,45 113,68 190,68 90,0 162,-23 215,-68 54,-46 81,-114 81,-203l0 -787c0,-38 -21,-64 -63,-77 -41,-14 -61,-33 -61,-58 0,-35 17,-53 51,-53l330 0c35,0 53,18 53,53 0,24 -22,42 -65,57 -42,13 -64,45 -64,96l0 795zm655 190c3,19 9,36 18,51 9,15 27,22 54,22 60,0 108,1 144,2 37,0 66,1 87,1 21,0 37,-1 48,-1 11,-1 20,-2 28,-2 25,0 53,-12 86,-36 33,-25 66,-53 100,-86 22,-20 42,-30 61,-31 19,-1 28,14 28,45 0,21 -14,60 -42,119 -11,23 -21,43 -28,59 -7,17 -16,32 -26,43 -9,12 -20,20 -33,27 -13,5 -29,9 -50,9l-877 0c-34,0 -51,-18 -51,-53 0,-22 21,-40 63,-53 44,-15 65,-43 65,-82l0 -1037c0,-38 -21,-64 -63,-78 -42,-13 -63,-32 -63,-57 0,-35 17,-53 51,-53l478 0c34,0 51,18 51,53 0,24 -21,42 -63,56 -43,13 -63,40 -63,79l-3 1003zm1437 222c-38,0 -57,-19 -57,-55 0,-22 15,-39 43,-49 31,-11 56,-25 73,-42 18,-17 24,-35 17,-54l-61 -196c-21,-5 -40,-9 -59,-11 -18,-2 -39,-2 -63,-1 -28,7 -55,11 -82,11 -27,1 -50,-2 -69,-9 -22,-7 -37,-16 -45,-28 -8,-11 -12,-24 -12,-39 0,-29 10,-48 31,-57 21,-10 52,-14 93,-14 22,0 46,0 74,1 28,0 48,-6 60,-18 -3,-16 -10,-45 -23,-86 -13,-42 -27,-86 -44,-132 -16,-46 -32,-89 -47,-128 -15,-40 -25,-65 -30,-78 -18,36 -39,88 -64,156 -24,69 -53,152 -87,250 -40,109 -68,196 -85,263 -17,66 -25,112 -25,136 0,34 18,58 55,71 37,14 55,32 55,54 0,36 -19,55 -57,55l-332 0c-19,0 -30,-6 -34,-16 -3,-10 -5,-24 -5,-44 37,-28 71,-56 102,-83 31,-27 52,-55 63,-82 65,-186 127,-371 185,-556 57,-184 117,-372 180,-560 9,-23 25,-41 46,-54 21,-13 43,-20 68,-20 29,0 58,6 89,17 32,10 52,27 62,49 65,186 130,371 195,555 65,184 131,369 196,555 7,21 20,38 40,52 21,14 49,35 86,62 19,14 36,26 51,37 15,11 22,22 22,33 0,36 -18,55 -55,55l-550 0z"/>
  </g>
 </g>
</svg>
