<svg id="Capa_1" data-name="Capa 1" xmlns="http://www.w3.org/2000/svg" xmlns:xlink="http://www.w3.org/1999/xlink" viewBox="0 0 1846.8 339.75"><defs><style>.cls-1{fill:#1d1d1b;}</style></defs><title>Logo Mama Antula</title><image width="640" height="453" transform="scale(0.75)" xlink:href="RV17638_Articolo.jpg"/><path class="cls-1" d="M523.42,302.81a5.51,5.51,0,0,0-1.66-2.06l-87.1-74.11c-2-1.72-4.17-2.5-6.79-1.28l-.29.14c-2.63,1.22-3.41,3.35-3.42,6l.08,65.91,7.62-4.4-.3-58.92,51.86,44.65,8.69,7.39h0l24.12,20.72c1.47,1.27,3.39,2,5.14,1.16A4,4,0,0,0,523.42,302.81Z" transform="translate(1322.34 -130.55)"/><path class="cls-1" d="M396.45,313.36l8.36-4.83V229.39a4.26,4.26,0,0,0-4.18-4.18h-.8a5,5,0,0,0-4.18,2.41l-43.89,64.62-43.89-64.62a5.22,5.22,0,0,0-4.18-2.41h-.8a4.26,4.26,0,0,0-4.18,4.18V334.84a4,4,0,0,0,8,0V240.48l41.31,60.12a4,4,0,0,0,7.07,0l41.31-60.12Z" transform="translate(1322.34 -130.55)"/><path class="cls-1" d="M518.89,231.91,444.19,277,326.11,348.35l-27.32,16.5c-4.13,2.49-.36,9,3.79,6.48l74.69-45.11,118.09-71.32,27.32-16.5c4.13-2.49.36-9-3.79-6.48Z" transform="translate(1322.34 -130.55)"/></svg>